<svg xmlns="http://www.w3.org/2000/svg" viewBox="0 0 670.4 447.2" width="670.4" height="447.2">
  <rect x="0" y="0" width="670.4" height="447.2" fill="#1e1e1e" rx="10" ry="10"/>
  <g class="title-bar">
    <circle cx="16" cy="20" r="6" fill="#ff5f56"/>
    <circle cx="36" cy="20" r="6" fill="#ffbd2e"/>
    <circle cx="56" cy="20" r="6" fill="#27c93f"/>
  </g>
  <g class="glyphs">
    <g shape-rendering="crispEdges"><line x1="18.7" y1="154" x2="18.7" y2="163.8" stroke="#d4d4d4" stroke-width="1"/><line x1="21.7" y1="154" x2="21.7" y2="163.8" stroke="#d4d4d4" stroke-width="1"/><line x1="18.7" y1="163.8" x2="18.7" y2="173.6" stroke="#d4d4d4" stroke-width="1"/><line x1="21.7" y1="163.8" x2="21.7" y2="173.6" stroke="#d4d4d4" stroke-width="1"/></g>
    <rect x="24.4" y="154" width="8.4" height="19.6" fill="#678f8f" shape-rendering="crispEdges"/>
    <rect x="91.6" y="154" width="8.4" height="19.6" fill="#678a8f" shape-rendering="crispEdges"/>
    <rect x="158.8" y="154" width="8.4" height="19.6" fill="#67868f" shape-rendering="crispEdges"/>
    <rect x="226" y="154" width="8.4" height="19.6" fill="#67818f" shape-rendering="crispEdges"/>
    <rect x="293.2" y="154" width="8.4" height="19.6" fill="#677d8f" shape-rendering="crispEdges"/>
    <rect x="360.4" y="154" width="8.4" height="19.6" fill="#67798f" shape-rendering="crispEdges"/>
    <rect x="427.6" y="154" width="8.4" height="19.6" fill="#67748f" shape-rendering="crispEdges"/>
    <rect x="494.8" y="154" width="8.4" height="19.6" fill="#67708f" shape-rendering="crispEdges"/>
    <rect x="562" y="154" width="8.4" height="19.6" fill="#676b8f" shape-rendering="crispEdges"/>
    <rect x="629.2" y="154" width="8.4" height="19.6" fill="#afafff" shape-rendering="crispEdges"/>
    <g shape-rendering="crispEdges"><line x1="18.7" y1="173.6" x2="18.7" y2="183.4" stroke="#d4d4d4" stroke-width="1"/><line x1="21.7" y1="173.6" x2="21.7" y2="183.4" stroke="#d4d4d4" stroke-width="1"/><line x1="18.7" y1="183.4" x2="18.7" y2="193.2" stroke="#d4d4d4" stroke-width="1"/><line x1="21.7" y1="183.4" x2="21.7" y2="193.2" stroke="#d4d4d4" stroke-width="1"/></g>
    <rect x="24.4" y="173.6" width="8.4" height="19.6" fill="#678f8f" shape-rendering="crispEdges"/>
    <rect x="91.6" y="173.6" width="8.4" height="19.6" fill="#678a8f" shape-rendering="crispEdges"/>
    <rect x="158.8" y="173.6" width="8.4" height="19.6" fill="#67868f" shape-rendering="crispEdges"/>
    <rect x="226" y="173.6" width="8.4" height="19.6" fill="#67818f" shape-rendering="crispEdges"/>
    <rect x="293.2" y="173.6" width="8.4" height="19.6" fill="#677d8f" shape-rendering="crispEdges"/>
    <rect x="360.4" y="173.6" width="8.4" height="19.6" fill="#67798f" shape-rendering="crispEdges"/>
    <rect x="427.6" y="173.6" width="8.4" height="19.6" fill="#67748f" shape-rendering="crispEdges"/>
    <rect x="494.8" y="173.6" width="8.4" height="19.6" fill="#67708f" shape-rendering="crispEdges"/>
    <rect x="562" y="173.6" width="8.4" height="19.6" fill="#afb8ff" shape-rendering="crispEdges"/>
    <rect x="629.2" y="173.6" width="8.4" height="19.6" fill="#afafff" shape-rendering="crispEdges"/>
    <g shape-rendering="crispEdges"><line x1="18.7" y1="193.2" x2="18.7" y2="203" stroke="#d4d4d4" stroke-width="1"/><line x1="21.7" y1="193.2" x2="21.7" y2="203" stroke="#d4d4d4" stroke-width="1"/><line x1="18.7" y1="203" x2="18.7" y2="212.8" stroke="#d4d4d4" stroke-width="1"/><line x1="21.7" y1="203" x2="21.7" y2="212.8" stroke="#d4d4d4" stroke-width="1"/></g>
    <rect x="24.4" y="193.2" width="8.4" height="19.6" fill="#678f8f" shape-rendering="crispEdges"/>
    <rect x="91.6" y="193.2" width="8.4" height="19.6" fill="#678a8f" shape-rendering="crispEdges"/>
    <rect x="158.8" y="193.2" width="8.4" height="19.6" fill="#67868f" shape-rendering="crispEdges"/>
    <rect x="226" y="193.2" width="8.4" height="19.6" fill="#67818f" shape-rendering="crispEdges"/>
    <rect x="293.2" y="193.2" width="8.4" height="19.6" fill="#677d8f" shape-rendering="crispEdges"/>
    <rect x="360.4" y="193.2" width="8.4" height="19.6" fill="#67798f" shape-rendering="crispEdges"/>
    <rect x="427.6" y="193.2" width="8.4" height="19.6" fill="#67748f" shape-rendering="crispEdges"/>
    <rect x="494.8" y="193.2" width="8.4" height="19.6" fill="#afc1ff" shape-rendering="crispEdges"/>
    <rect x="562" y="193.2" width="8.4" height="19.6" fill="#afb8ff" shape-rendering="crispEdges"/>
    <rect x="629.2" y="193.2" width="8.4" height="19.6" fill="#afafff" shape-rendering="crispEdges"/>
    <g shape-rendering="crispEdges"><line x1="18.7" y1="212.8" x2="18.7" y2="222.6" stroke="#d4d4d4" stroke-width="1"/><line x1="21.7" y1="212.8" x2="21.7" y2="222.6" stroke="#d4d4d4" stroke-width="1"/><line x1="18.7" y1="222.6" x2="18.7" y2="232.4" stroke="#d4d4d4" stroke-width="1"/><line x1="21.7" y1="222.6" x2="21.7" y2="232.4" stroke="#d4d4d4" stroke-width="1"/></g>
    <rect x="24.4" y="212.8" width="8.4" height="19.6" fill="#678f8f" shape-rendering="crispEdges"/>
    <rect x="91.6" y="212.8" width="8.4" height="19.6" fill="#678a8f" shape-rendering="crispEdges"/>
    <rect x="158.8" y="212.8" width="8.4" height="19.6" fill="#67868f" shape-rendering="crispEdges"/>
    <rect x="226" y="212.8" width="8.4" height="19.6" fill="#67818f" shape-rendering="crispEdges"/>
    <rect x="293.2" y="212.8" width="8.4" height="19.6" fill="#677d8f" shape-rendering="crispEdges"/>
    <rect x="360.4" y="212.8" width="8.4" height="19.6" fill="#67798f" shape-rendering="crispEdges"/>
    <rect x="427.6" y="212.8" width="8.4" height="19.6" fill="#afcaff" shape-rendering="crispEdges"/>
    <rect x="494.8" y="212.8" width="8.4" height="19.6" fill="#afc1ff" shape-rendering="crispEdges"/>
    <rect x="562" y="212.8" width="8.4" height="19.6" fill="#afb8ff" shape-rendering="crispEdges"/>
    <rect x="629.2" y="212.8" width="8.4" height="19.6" fill="#afafff" shape-rendering="crispEdges"/>
    <g shape-rendering="crispEdges"><line x1="18.7" y1="232.4" x2="18.7" y2="242.2" stroke="#d4d4d4" stroke-width="1"/><line x1="21.7" y1="232.4" x2="21.7" y2="242.2" stroke="#d4d4d4" stroke-width="1"/><line x1="18.7" y1="242.2" x2="18.7" y2="252" stroke="#d4d4d4" stroke-width="1"/><line x1="21.7" y1="242.2" x2="21.7" y2="252" stroke="#d4d4d4" stroke-width="1"/></g>
    <rect x="24.4" y="232.4" width="8.4" height="19.6" fill="#678f8f" shape-rendering="crispEdges"/>
    <rect x="91.6" y="232.4" width="8.4" height="19.6" fill="#678a8f" shape-rendering="crispEdges"/>
    <rect x="158.8" y="232.4" width="8.4" height="19.6" fill="#67868f" shape-rendering="crispEdges"/>
    <rect x="226" y="232.4" width="8.4" height="19.6" fill="#67818f" shape-rendering="crispEdges"/>
    <rect x="293.2" y="232.4" width="8.4" height="19.6" fill="#677d8f" shape-rendering="crispEdges"/>
    <rect x="360.4" y="232.4" width="8.4" height="19.6" fill="#afd3ff" shape-rendering="crispEdges"/>
    <rect x="427.6" y="232.4" width="8.4" height="19.6" fill="#afcaff" shape-rendering="crispEdges"/>
    <rect x="494.8" y="232.4" width="8.4" height="19.6" fill="#afc1ff" shape-rendering="crispEdges"/>
    <rect x="562" y="232.4" width="8.4" height="19.6" fill="#afb8ff" shape-rendering="crispEdges"/>
    <rect x="629.2" y="232.4" width="8.4" height="19.6" fill="#afafff" shape-rendering="crispEdges"/>
    <g shape-rendering="crispEdges"><line x1="18.7" y1="252" x2="18.7" y2="261.8" stroke="#d4d4d4" stroke-width="1"/><line x1="21.7" y1="252" x2="21.7" y2="261.8" stroke="#d4d4d4" stroke-width="1"/><line x1="18.7" y1="261.8" x2="18.7" y2="271.6" stroke="#d4d4d4" stroke-width="1"/><line x1="21.7" y1="261.8" x2="21.7" y2="271.6" stroke="#d4d4d4" stroke-width="1"/></g>
    <rect x="24.4" y="252" width="8.4" height="19.6" fill="#678f8f" shape-rendering="crispEdges"/>
    <rect x="91.6" y="252" width="8.4" height="19.6" fill="#678a8f" shape-rendering="crispEdges"/>
    <rect x="158.8" y="252" width="8.4" height="19.6" fill="#67868f" shape-rendering="crispEdges"/>
    <rect x="226" y="252" width="8.4" height="19.6" fill="#67818f" shape-rendering="crispEdges"/>
    <rect x="293.2" y="252" width="8.4" height="19.6" fill="#afdbff" shape-rendering="crispEdges"/>
    <rect x="360.4" y="252" width="8.4" height="19.6" fill="#afd3ff" shape-rendering="crispEdges"/>
    <rect x="427.6" y="252" width="8.4" height="19.6" fill="#afcaff" shape-rendering="crispEdges"/>
    <rect x="494.8" y="252" width="8.4" height="19.6" fill="#afc1ff" shape-rendering="crispEdges"/>
    <rect x="562" y="252" width="8.4" height="19.6" fill="#afb8ff" shape-rendering="crispEdges"/>
    <rect x="629.2" y="252" width="8.4" height="19.6" fill="#afafff" shape-rendering="crispEdges"/>
    <g shape-rendering="crispEdges"><line x1="18.7" y1="271.6" x2="18.7" y2="281.4" stroke="#d4d4d4" stroke-width="1"/><line x1="21.7" y1="271.6" x2="21.7" y2="281.4" stroke="#d4d4d4" stroke-width="1"/><line x1="18.7" y1="281.4" x2="18.7" y2="291.2" stroke="#d4d4d4" stroke-width="1"/><line x1="21.7" y1="281.4" x2="21.7" y2="291.2" stroke="#d4d4d4" stroke-width="1"/></g>
    <rect x="24.4" y="271.6" width="8.4" height="19.6" fill="#678f8f" shape-rendering="crispEdges"/>
    <rect x="91.6" y="271.6" width="8.4" height="19.6" fill="#678a8f" shape-rendering="crispEdges"/>
    <rect x="158.8" y="271.6" width="8.4" height="19.6" fill="#67868f" shape-rendering="crispEdges"/>
    <rect x="226" y="271.6" width="8.4" height="19.6" fill="#afe4ff" shape-rendering="crispEdges"/>
    <rect x="293.2" y="271.6" width="8.4" height="19.6" fill="#afdbff" shape-rendering="crispEdges"/>
    <rect x="360.4" y="271.6" width="8.4" height="19.6" fill="#afd3ff" shape-rendering="crispEdges"/>
    <rect x="427.6" y="271.6" width="8.4" height="19.6" fill="#afcaff" shape-rendering="crispEdges"/>
    <rect x="494.8" y="271.6" width="8.4" height="19.6" fill="#afc1ff" shape-rendering="crispEdges"/>
    <rect x="562" y="271.6" width="8.4" height="19.6" fill="#afb8ff" shape-rendering="crispEdges"/>
    <rect x="629.2" y="271.6" width="8.4" height="19.6" fill="#afafff" shape-rendering="crispEdges"/>
    <g shape-rendering="crispEdges"><line x1="18.7" y1="291.2" x2="18.7" y2="301" stroke="#d4d4d4" stroke-width="1"/><line x1="21.7" y1="291.2" x2="21.7" y2="301" stroke="#d4d4d4" stroke-width="1"/><line x1="18.7" y1="301" x2="18.7" y2="310.8" stroke="#d4d4d4" stroke-width="1"/><line x1="21.7" y1="301" x2="21.7" y2="310.8" stroke="#d4d4d4" stroke-width="1"/></g>
    <rect x="24.4" y="291.2" width="8.4" height="19.6" fill="#678f8f" shape-rendering="crispEdges"/>
    <rect x="91.6" y="291.2" width="8.4" height="19.6" fill="#678a8f" shape-rendering="crispEdges"/>
    <rect x="158.8" y="291.2" width="8.4" height="19.6" fill="#afedff" shape-rendering="crispEdges"/>
    <rect x="226" y="291.2" width="8.4" height="19.6" fill="#afe4ff" shape-rendering="crispEdges"/>
    <rect x="293.2" y="291.2" width="8.4" height="19.6" fill="#afdbff" shape-rendering="crispEdges"/>
    <rect x="360.4" y="291.2" width="8.4" height="19.6" fill="#afd3ff" shape-rendering="crispEdges"/>
    <rect x="427.6" y="291.2" width="8.4" height="19.6" fill="#afcaff" shape-rendering="crispEdges"/>
    <rect x="494.8" y="291.2" width="8.4" height="19.6" fill="#afc1ff" shape-rendering="crispEdges"/>
    <rect x="562" y="291.2" width="8.4" height="19.6" fill="#afb8ff" shape-rendering="crispEdges"/>
    <rect x="629.2" y="291.2" width="8.4" height="19.6" fill="#afafff" shape-rendering="crispEdges"/>
    <g shape-rendering="crispEdges"><line x1="18.7" y1="310.8" x2="18.7" y2="320.6" stroke="#d4d4d4" stroke-width="1"/><line x1="21.7" y1="310.8" x2="21.7" y2="320.6" stroke="#d4d4d4" stroke-width="1"/><line x1="18.7" y1="320.6" x2="18.7" y2="330.4" stroke="#d4d4d4" stroke-width="1"/><line x1="21.7" y1="320.6" x2="21.7" y2="330.4" stroke="#d4d4d4" stroke-width="1"/></g>
    <rect x="24.4" y="310.8" width="8.4" height="19.6" fill="#678f8f" shape-rendering="crispEdges"/>
    <rect x="91.6" y="310.8" width="8.4" height="19.6" fill="#aff6ff" shape-rendering="crispEdges"/>
    <rect x="158.8" y="310.8" width="8.4" height="19.6" fill="#afedff" shape-rendering="crispEdges"/>
    <rect x="226" y="310.8" width="8.4" height="19.6" fill="#afe4ff" shape-rendering="crispEdges"/>
    <rect x="293.2" y="310.8" width="8.4" height="19.6" fill="#afdbff" shape-rendering="crispEdges"/>
    <rect x="360.4" y="310.8" width="8.4" height="19.6" fill="#afd3ff" shape-rendering="crispEdges"/>
    <rect x="427.6" y="310.8" width="8.4" height="19.6" fill="#afcaff" shape-rendering="crispEdges"/>
    <rect x="494.8" y="310.8" width="8.4" height="19.6" fill="#afc1ff" shape-rendering="crispEdges"/>
    <rect x="562" y="310.8" width="8.4" height="19.6" fill="#afb8ff" shape-rendering="crispEdges"/>
    <rect x="629.2" y="310.8" width="8.4" height="19.6" fill="#afafff" shape-rendering="crispEdges"/>
    <g shape-rendering="crispEdges"><line x1="18.7" y1="330.4" x2="18.7" y2="340.2" stroke="#d4d4d4" stroke-width="1"/><line x1="21.7" y1="330.4" x2="21.7" y2="340.2" stroke="#d4d4d4" stroke-width="1"/><line x1="18.7" y1="340.2" x2="18.7" y2="350" stroke="#d4d4d4" stroke-width="1"/><line x1="21.7" y1="340.2" x2="21.7" y2="350" stroke="#d4d4d4" stroke-width="1"/></g>
    <rect x="24.4" y="330.4" width="8.4" height="19.6" fill="#afffff" shape-rendering="crispEdges"/>
    <rect x="91.6" y="330.4" width="8.4" height="19.6" fill="#aff6ff" shape-rendering="crispEdges"/>
    <rect x="158.8" y="330.4" width="8.4" height="19.6" fill="#afedff" shape-rendering="crispEdges"/>
    <rect x="226" y="330.4" width="8.4" height="19.6" fill="#afe4ff" shape-rendering="crispEdges"/>
    <rect x="293.2" y="330.4" width="8.4" height="19.6" fill="#afdbff" shape-rendering="crispEdges"/>
    <rect x="360.4" y="330.4" width="8.4" height="19.6" fill="#afd3ff" shape-rendering="crispEdges"/>
    <rect x="427.6" y="330.4" width="8.4" height="19.6" fill="#afcaff" shape-rendering="crispEdges"/>
    <rect x="494.8" y="330.4" width="8.4" height="19.6" fill="#afc1ff" shape-rendering="crispEdges"/>
    <rect x="562" y="330.4" width="8.4" height="19.6" fill="#afb8ff" shape-rendering="crispEdges"/>
    <rect x="629.2" y="330.4" width="8.4" height="19.6" fill="#afafff" shape-rendering="crispEdges"/>
    <g shape-rendering="crispEdges"><path d="M 18.7 350 L 18.7 361.3 L 24.4 361.3" fill="none" stroke="#d4d4d4" stroke-width="1"/><path d="M 21.7 350 L 21.7 358.3 L 24.4 358.3" fill="none" stroke="#d4d4d4" stroke-width="1"/></g>
    <g shape-rendering="crispEdges"><line x1="24.4" y1="358.3" x2="28.6" y2="358.3" stroke="#d4d4d4" stroke-width="1"/><line x1="24.4" y1="361.3" x2="28.6" y2="361.3" stroke="#d4d4d4" stroke-width="1"/><line x1="28.6" y1="358.3" x2="32.8" y2="358.3" stroke="#d4d4d4" stroke-width="1"/><line x1="28.6" y1="361.3" x2="32.8" y2="361.3" stroke="#d4d4d4" stroke-width="1"/></g>
    <g shape-rendering="crispEdges"><line x1="32.8" y1="358.3" x2="37" y2="358.3" stroke="#d4d4d4" stroke-width="1"/><line x1="32.8" y1="361.3" x2="37" y2="361.3" stroke="#d4d4d4" stroke-width="1"/><line x1="37" y1="358.3" x2="41.2" y2="358.3" stroke="#d4d4d4" stroke-width="1"/><line x1="37" y1="361.3" x2="41.2" y2="361.3" stroke="#d4d4d4" stroke-width="1"/></g>
    <g shape-rendering="crispEdges"><line x1="41.2" y1="358.3" x2="45.4" y2="358.3" stroke="#d4d4d4" stroke-width="1"/><line x1="41.2" y1="361.3" x2="45.4" y2="361.3" stroke="#d4d4d4" stroke-width="1"/><line x1="45.4" y1="358.3" x2="49.6" y2="358.3" stroke="#d4d4d4" stroke-width="1"/><line x1="45.4" y1="361.3" x2="49.6" y2="361.3" stroke="#d4d4d4" stroke-width="1"/></g>
    <g shape-rendering="crispEdges"><line x1="49.6" y1="358.3" x2="53.8" y2="358.3" stroke="#d4d4d4" stroke-width="1"/><line x1="49.6" y1="361.3" x2="53.8" y2="361.3" stroke="#d4d4d4" stroke-width="1"/><line x1="53.8" y1="358.3" x2="58" y2="358.3" stroke="#d4d4d4" stroke-width="1"/><line x1="53.8" y1="361.3" x2="58" y2="361.3" stroke="#d4d4d4" stroke-width="1"/></g>
    <g shape-rendering="crispEdges"><line x1="58" y1="358.3" x2="62.2" y2="358.3" stroke="#d4d4d4" stroke-width="1"/><line x1="58" y1="361.3" x2="62.2" y2="361.3" stroke="#d4d4d4" stroke-width="1"/><line x1="62.2" y1="358.3" x2="66.4" y2="358.3" stroke="#d4d4d4" stroke-width="1"/><line x1="62.2" y1="361.3" x2="66.4" y2="361.3" stroke="#d4d4d4" stroke-width="1"/></g>
    <g shape-rendering="crispEdges"><line x1="66.4" y1="358.3" x2="70.6" y2="358.3" stroke="#d4d4d4" stroke-width="1"/><line x1="66.4" y1="361.3" x2="70.6" y2="361.3" stroke="#d4d4d4" stroke-width="1"/><line x1="70.6" y1="358.3" x2="74.8" y2="358.3" stroke="#d4d4d4" stroke-width="1"/><line x1="70.6" y1="361.3" x2="74.8" y2="361.3" stroke="#d4d4d4" stroke-width="1"/></g>
    <g shape-rendering="crispEdges"><line x1="74.8" y1="358.3" x2="79" y2="358.3" stroke="#d4d4d4" stroke-width="1"/><line x1="74.8" y1="361.3" x2="79" y2="361.3" stroke="#d4d4d4" stroke-width="1"/><line x1="79" y1="358.3" x2="83.2" y2="358.3" stroke="#d4d4d4" stroke-width="1"/><line x1="79" y1="361.3" x2="83.2" y2="361.3" stroke="#d4d4d4" stroke-width="1"/></g>
    <g shape-rendering="crispEdges"><line x1="83.2" y1="358.3" x2="87.4" y2="358.3" stroke="#d4d4d4" stroke-width="1"/><line x1="83.2" y1="361.3" x2="87.4" y2="361.3" stroke="#d4d4d4" stroke-width="1"/><line x1="87.4" y1="358.3" x2="91.6" y2="358.3" stroke="#d4d4d4" stroke-width="1"/><line x1="87.4" y1="361.3" x2="91.6" y2="361.3" stroke="#d4d4d4" stroke-width="1"/></g>
    <g shape-rendering="crispEdges"><line x1="91.6" y1="358.3" x2="95.8" y2="358.3" stroke="#d4d4d4" stroke-width="1"/><line x1="91.6" y1="361.3" x2="95.8" y2="361.3" stroke="#d4d4d4" stroke-width="1"/><line x1="95.8" y1="358.3" x2="100" y2="358.3" stroke="#d4d4d4" stroke-width="1"/><line x1="95.8" y1="361.3" x2="100" y2="361.3" stroke="#d4d4d4" stroke-width="1"/></g>
    <g shape-rendering="crispEdges"><line x1="100" y1="358.3" x2="104.2" y2="358.3" stroke="#d4d4d4" stroke-width="1"/><line x1="100" y1="361.3" x2="104.2" y2="361.3" stroke="#d4d4d4" stroke-width="1"/><line x1="104.2" y1="358.3" x2="108.4" y2="358.3" stroke="#d4d4d4" stroke-width="1"/><line x1="104.2" y1="361.3" x2="108.4" y2="361.3" stroke="#d4d4d4" stroke-width="1"/></g>
    <g shape-rendering="crispEdges"><line x1="108.4" y1="358.3" x2="112.6" y2="358.3" stroke="#d4d4d4" stroke-width="1"/><line x1="108.4" y1="361.3" x2="112.6" y2="361.3" stroke="#d4d4d4" stroke-width="1"/><line x1="112.6" y1="358.3" x2="116.8" y2="358.3" stroke="#d4d4d4" stroke-width="1"/><line x1="112.6" y1="361.3" x2="116.8" y2="361.3" stroke="#d4d4d4" stroke-width="1"/></g>
    <g shape-rendering="crispEdges"><line x1="116.8" y1="358.3" x2="121" y2="358.3" stroke="#d4d4d4" stroke-width="1"/><line x1="116.8" y1="361.3" x2="121" y2="361.3" stroke="#d4d4d4" stroke-width="1"/><line x1="121" y1="358.3" x2="125.2" y2="358.3" stroke="#d4d4d4" stroke-width="1"/><line x1="121" y1="361.3" x2="125.2" y2="361.3" stroke="#d4d4d4" stroke-width="1"/></g>
    <g shape-rendering="crispEdges"><line x1="125.2" y1="358.3" x2="129.4" y2="358.3" stroke="#d4d4d4" stroke-width="1"/><line x1="125.2" y1="361.3" x2="129.4" y2="361.3" stroke="#d4d4d4" stroke-width="1"/><line x1="129.4" y1="358.3" x2="133.6" y2="358.3" stroke="#d4d4d4" stroke-width="1"/><line x1="129.4" y1="361.3" x2="133.6" y2="361.3" stroke="#d4d4d4" stroke-width="1"/></g>
    <g shape-rendering="crispEdges"><line x1="133.6" y1="358.3" x2="137.8" y2="358.3" stroke="#d4d4d4" stroke-width="1"/><line x1="133.6" y1="361.3" x2="137.8" y2="361.3" stroke="#d4d4d4" stroke-width="1"/><line x1="137.8" y1="358.3" x2="142" y2="358.3" stroke="#d4d4d4" stroke-width="1"/><line x1="137.8" y1="361.3" x2="142" y2="361.3" stroke="#d4d4d4" stroke-width="1"/></g>
    <g shape-rendering="crispEdges"><line x1="142" y1="358.3" x2="146.2" y2="358.3" stroke="#d4d4d4" stroke-width="1"/><line x1="142" y1="361.3" x2="146.2" y2="361.3" stroke="#d4d4d4" stroke-width="1"/><line x1="146.2" y1="358.3" x2="150.4" y2="358.3" stroke="#d4d4d4" stroke-width="1"/><line x1="146.2" y1="361.3" x2="150.4" y2="361.3" stroke="#d4d4d4" stroke-width="1"/></g>
    <g shape-rendering="crispEdges"><line x1="150.4" y1="358.3" x2="154.6" y2="358.3" stroke="#d4d4d4" stroke-width="1"/><line x1="150.4" y1="361.3" x2="154.6" y2="361.3" stroke="#d4d4d4" stroke-width="1"/><line x1="154.6" y1="358.3" x2="158.8" y2="358.3" stroke="#d4d4d4" stroke-width="1"/><line x1="154.6" y1="361.3" x2="158.8" y2="361.3" stroke="#d4d4d4" stroke-width="1"/></g>
    <g shape-rendering="crispEdges"><line x1="158.8" y1="358.3" x2="163" y2="358.3" stroke="#d4d4d4" stroke-width="1"/><line x1="158.8" y1="361.3" x2="163" y2="361.3" stroke="#d4d4d4" stroke-width="1"/><line x1="163" y1="358.3" x2="167.2" y2="358.3" stroke="#d4d4d4" stroke-width="1"/><line x1="163" y1="361.3" x2="167.2" y2="361.3" stroke="#d4d4d4" stroke-width="1"/></g>
    <g shape-rendering="crispEdges"><line x1="167.2" y1="358.3" x2="171.4" y2="358.3" stroke="#d4d4d4" stroke-width="1"/><line x1="167.2" y1="361.3" x2="171.4" y2="361.3" stroke="#d4d4d4" stroke-width="1"/><line x1="171.4" y1="358.3" x2="175.6" y2="358.3" stroke="#d4d4d4" stroke-width="1"/><line x1="171.4" y1="361.3" x2="175.6" y2="361.3" stroke="#d4d4d4" stroke-width="1"/></g>
    <g shape-rendering="crispEdges"><line x1="175.6" y1="358.3" x2="179.8" y2="358.3" stroke="#d4d4d4" stroke-width="1"/><line x1="175.6" y1="361.3" x2="179.8" y2="361.3" stroke="#d4d4d4" stroke-width="1"/><line x1="179.8" y1="358.3" x2="184" y2="358.3" stroke="#d4d4d4" stroke-width="1"/><line x1="179.8" y1="361.3" x2="184" y2="361.3" stroke="#d4d4d4" stroke-width="1"/></g>
    <g shape-rendering="crispEdges"><line x1="184" y1="358.3" x2="188.2" y2="358.3" stroke="#d4d4d4" stroke-width="1"/><line x1="184" y1="361.3" x2="188.2" y2="361.3" stroke="#d4d4d4" stroke-width="1"/><line x1="188.2" y1="358.3" x2="192.4" y2="358.3" stroke="#d4d4d4" stroke-width="1"/><line x1="188.2" y1="361.3" x2="192.4" y2="361.3" stroke="#d4d4d4" stroke-width="1"/></g>
    <g shape-rendering="crispEdges"><line x1="192.4" y1="358.3" x2="196.6" y2="358.3" stroke="#d4d4d4" stroke-width="1"/><line x1="192.4" y1="361.3" x2="196.6" y2="361.3" stroke="#d4d4d4" stroke-width="1"/><line x1="196.6" y1="358.3" x2="200.8" y2="358.3" stroke="#d4d4d4" stroke-width="1"/><line x1="196.6" y1="361.3" x2="200.8" y2="361.3" stroke="#d4d4d4" stroke-width="1"/></g>
    <g shape-rendering="crispEdges"><line x1="200.8" y1="358.3" x2="205" y2="358.3" stroke="#d4d4d4" stroke-width="1"/><line x1="200.8" y1="361.3" x2="205" y2="361.3" stroke="#d4d4d4" stroke-width="1"/><line x1="205" y1="358.3" x2="209.2" y2="358.3" stroke="#d4d4d4" stroke-width="1"/><line x1="205" y1="361.3" x2="209.2" y2="361.3" stroke="#d4d4d4" stroke-width="1"/></g>
    <g shape-rendering="crispEdges"><line x1="209.2" y1="358.3" x2="213.4" y2="358.3" stroke="#d4d4d4" stroke-width="1"/><line x1="209.2" y1="361.3" x2="213.4" y2="361.3" stroke="#d4d4d4" stroke-width="1"/><line x1="213.4" y1="358.3" x2="217.6" y2="358.3" stroke="#d4d4d4" stroke-width="1"/><line x1="213.4" y1="361.3" x2="217.6" y2="361.3" stroke="#d4d4d4" stroke-width="1"/></g>
    <g shape-rendering="crispEdges"><line x1="217.6" y1="358.3" x2="221.8" y2="358.3" stroke="#d4d4d4" stroke-width="1"/><line x1="217.6" y1="361.3" x2="221.8" y2="361.3" stroke="#d4d4d4" stroke-width="1"/><line x1="221.8" y1="358.3" x2="226" y2="358.3" stroke="#d4d4d4" stroke-width="1"/><line x1="221.8" y1="361.3" x2="226" y2="361.3" stroke="#d4d4d4" stroke-width="1"/></g>
    <g shape-rendering="crispEdges"><line x1="226" y1="358.3" x2="230.2" y2="358.3" stroke="#d4d4d4" stroke-width="1"/><line x1="226" y1="361.3" x2="230.2" y2="361.3" stroke="#d4d4d4" stroke-width="1"/><line x1="230.2" y1="358.3" x2="234.4" y2="358.3" stroke="#d4d4d4" stroke-width="1"/><line x1="230.2" y1="361.3" x2="234.4" y2="361.3" stroke="#d4d4d4" stroke-width="1"/></g>
    <g shape-rendering="crispEdges"><line x1="234.4" y1="358.3" x2="238.6" y2="358.3" stroke="#d4d4d4" stroke-width="1"/><line x1="234.4" y1="361.3" x2="238.6" y2="361.3" stroke="#d4d4d4" stroke-width="1"/><line x1="238.6" y1="358.3" x2="242.8" y2="358.3" stroke="#d4d4d4" stroke-width="1"/><line x1="238.6" y1="361.3" x2="242.8" y2="361.3" stroke="#d4d4d4" stroke-width="1"/></g>
    <g shape-rendering="crispEdges"><line x1="242.8" y1="358.3" x2="247" y2="358.3" stroke="#d4d4d4" stroke-width="1"/><line x1="242.8" y1="361.3" x2="247" y2="361.3" stroke="#d4d4d4" stroke-width="1"/><line x1="247" y1="358.3" x2="251.2" y2="358.3" stroke="#d4d4d4" stroke-width="1"/><line x1="247" y1="361.3" x2="251.2" y2="361.3" stroke="#d4d4d4" stroke-width="1"/></g>
    <g shape-rendering="crispEdges"><line x1="251.2" y1="358.3" x2="255.4" y2="358.3" stroke="#d4d4d4" stroke-width="1"/><line x1="251.2" y1="361.3" x2="255.4" y2="361.3" stroke="#d4d4d4" stroke-width="1"/><line x1="255.4" y1="358.3" x2="259.6" y2="358.3" stroke="#d4d4d4" stroke-width="1"/><line x1="255.4" y1="361.3" x2="259.6" y2="361.3" stroke="#d4d4d4" stroke-width="1"/></g>
    <g shape-rendering="crispEdges"><line x1="259.6" y1="358.3" x2="263.8" y2="358.3" stroke="#d4d4d4" stroke-width="1"/><line x1="259.6" y1="361.3" x2="263.8" y2="361.3" stroke="#d4d4d4" stroke-width="1"/><line x1="263.8" y1="358.3" x2="268" y2="358.3" stroke="#d4d4d4" stroke-width="1"/><line x1="263.8" y1="361.3" x2="268" y2="361.3" stroke="#d4d4d4" stroke-width="1"/></g>
    <g shape-rendering="crispEdges"><line x1="268" y1="358.3" x2="272.2" y2="358.3" stroke="#d4d4d4" stroke-width="1"/><line x1="268" y1="361.3" x2="272.2" y2="361.3" stroke="#d4d4d4" stroke-width="1"/><line x1="272.2" y1="358.3" x2="276.4" y2="358.3" stroke="#d4d4d4" stroke-width="1"/><line x1="272.2" y1="361.3" x2="276.4" y2="361.3" stroke="#d4d4d4" stroke-width="1"/></g>
    <g shape-rendering="crispEdges"><line x1="276.4" y1="358.3" x2="280.6" y2="358.3" stroke="#d4d4d4" stroke-width="1"/><line x1="276.4" y1="361.3" x2="280.6" y2="361.3" stroke="#d4d4d4" stroke-width="1"/><line x1="280.6" y1="358.3" x2="284.8" y2="358.3" stroke="#d4d4d4" stroke-width="1"/><line x1="280.6" y1="361.3" x2="284.8" y2="361.3" stroke="#d4d4d4" stroke-width="1"/></g>
    <g shape-rendering="crispEdges"><line x1="284.8" y1="358.3" x2="289" y2="358.3" stroke="#d4d4d4" stroke-width="1"/><line x1="284.8" y1="361.3" x2="289" y2="361.3" stroke="#d4d4d4" stroke-width="1"/><line x1="289" y1="358.3" x2="293.2" y2="358.3" stroke="#d4d4d4" stroke-width="1"/><line x1="289" y1="361.3" x2="293.2" y2="361.3" stroke="#d4d4d4" stroke-width="1"/></g>
    <g shape-rendering="crispEdges"><line x1="293.2" y1="358.3" x2="297.4" y2="358.3" stroke="#d4d4d4" stroke-width="1"/><line x1="293.2" y1="361.3" x2="297.4" y2="361.3" stroke="#d4d4d4" stroke-width="1"/><line x1="297.4" y1="358.3" x2="301.6" y2="358.3" stroke="#d4d4d4" stroke-width="1"/><line x1="297.4" y1="361.3" x2="301.6" y2="361.3" stroke="#d4d4d4" stroke-width="1"/></g>
    <g shape-rendering="crispEdges"><line x1="301.6" y1="358.3" x2="305.8" y2="358.3" stroke="#d4d4d4" stroke-width="1"/><line x1="301.6" y1="361.3" x2="305.8" y2="361.3" stroke="#d4d4d4" stroke-width="1"/><line x1="305.8" y1="358.3" x2="310" y2="358.3" stroke="#d4d4d4" stroke-width="1"/><line x1="305.8" y1="361.3" x2="310" y2="361.3" stroke="#d4d4d4" stroke-width="1"/></g>
    <g shape-rendering="crispEdges"><line x1="310" y1="358.3" x2="314.2" y2="358.3" stroke="#d4d4d4" stroke-width="1"/><line x1="310" y1="361.3" x2="314.2" y2="361.3" stroke="#d4d4d4" stroke-width="1"/><line x1="314.2" y1="358.3" x2="318.4" y2="358.3" stroke="#d4d4d4" stroke-width="1"/><line x1="314.2" y1="361.3" x2="318.4" y2="361.3" stroke="#d4d4d4" stroke-width="1"/></g>
    <g shape-rendering="crispEdges"><line x1="318.4" y1="358.3" x2="322.6" y2="358.3" stroke="#d4d4d4" stroke-width="1"/><line x1="318.4" y1="361.3" x2="322.6" y2="361.3" stroke="#d4d4d4" stroke-width="1"/><line x1="322.6" y1="358.3" x2="326.8" y2="358.3" stroke="#d4d4d4" stroke-width="1"/><line x1="322.6" y1="361.3" x2="326.8" y2="361.3" stroke="#d4d4d4" stroke-width="1"/></g>
    <g shape-rendering="crispEdges"><line x1="326.8" y1="358.3" x2="331" y2="358.3" stroke="#d4d4d4" stroke-width="1"/><line x1="326.8" y1="361.3" x2="331" y2="361.3" stroke="#d4d4d4" stroke-width="1"/><line x1="331" y1="358.3" x2="335.2" y2="358.3" stroke="#d4d4d4" stroke-width="1"/><line x1="331" y1="361.3" x2="335.2" y2="361.3" stroke="#d4d4d4" stroke-width="1"/></g>
    <g shape-rendering="crispEdges"><line x1="335.2" y1="358.3" x2="339.4" y2="358.3" stroke="#d4d4d4" stroke-width="1"/><line x1="335.2" y1="361.3" x2="339.4" y2="361.3" stroke="#d4d4d4" stroke-width="1"/><line x1="339.4" y1="358.3" x2="343.6" y2="358.3" stroke="#d4d4d4" stroke-width="1"/><line x1="339.4" y1="361.3" x2="343.6" y2="361.3" stroke="#d4d4d4" stroke-width="1"/></g>
    <g shape-rendering="crispEdges"><line x1="343.6" y1="358.3" x2="347.8" y2="358.3" stroke="#d4d4d4" stroke-width="1"/><line x1="343.6" y1="361.3" x2="347.8" y2="361.3" stroke="#d4d4d4" stroke-width="1"/><line x1="347.8" y1="358.3" x2="352" y2="358.3" stroke="#d4d4d4" stroke-width="1"/><line x1="347.8" y1="361.3" x2="352" y2="361.3" stroke="#d4d4d4" stroke-width="1"/></g>
    <g shape-rendering="crispEdges"><line x1="352" y1="358.3" x2="356.2" y2="358.3" stroke="#d4d4d4" stroke-width="1"/><line x1="352" y1="361.3" x2="356.2" y2="361.3" stroke="#d4d4d4" stroke-width="1"/><line x1="356.2" y1="358.3" x2="360.4" y2="358.3" stroke="#d4d4d4" stroke-width="1"/><line x1="356.2" y1="361.3" x2="360.4" y2="361.3" stroke="#d4d4d4" stroke-width="1"/></g>
    <g shape-rendering="crispEdges"><line x1="360.4" y1="358.3" x2="364.6" y2="358.3" stroke="#d4d4d4" stroke-width="1"/><line x1="360.4" y1="361.3" x2="364.6" y2="361.3" stroke="#d4d4d4" stroke-width="1"/><line x1="364.6" y1="358.3" x2="368.8" y2="358.3" stroke="#d4d4d4" stroke-width="1"/><line x1="364.6" y1="361.3" x2="368.8" y2="361.3" stroke="#d4d4d4" stroke-width="1"/></g>
    <g shape-rendering="crispEdges"><line x1="368.8" y1="358.3" x2="373" y2="358.3" stroke="#d4d4d4" stroke-width="1"/><line x1="368.8" y1="361.3" x2="373" y2="361.3" stroke="#d4d4d4" stroke-width="1"/><line x1="373" y1="358.3" x2="377.2" y2="358.3" stroke="#d4d4d4" stroke-width="1"/><line x1="373" y1="361.3" x2="377.2" y2="361.3" stroke="#d4d4d4" stroke-width="1"/></g>
    <g shape-rendering="crispEdges"><line x1="377.2" y1="358.3" x2="381.4" y2="358.3" stroke="#d4d4d4" stroke-width="1"/><line x1="377.2" y1="361.3" x2="381.4" y2="361.3" stroke="#d4d4d4" stroke-width="1"/><line x1="381.4" y1="358.3" x2="385.6" y2="358.3" stroke="#d4d4d4" stroke-width="1"/><line x1="381.4" y1="361.3" x2="385.6" y2="361.3" stroke="#d4d4d4" stroke-width="1"/></g>
    <g shape-rendering="crispEdges"><line x1="385.6" y1="358.3" x2="389.8" y2="358.3" stroke="#d4d4d4" stroke-width="1"/><line x1="385.6" y1="361.3" x2="389.8" y2="361.3" stroke="#d4d4d4" stroke-width="1"/><line x1="389.8" y1="358.3" x2="394" y2="358.3" stroke="#d4d4d4" stroke-width="1"/><line x1="389.8" y1="361.3" x2="394" y2="361.3" stroke="#d4d4d4" stroke-width="1"/></g>
    <g shape-rendering="crispEdges"><line x1="394" y1="358.3" x2="398.2" y2="358.3" stroke="#d4d4d4" stroke-width="1"/><line x1="394" y1="361.3" x2="398.2" y2="361.3" stroke="#d4d4d4" stroke-width="1"/><line x1="398.2" y1="358.3" x2="402.4" y2="358.3" stroke="#d4d4d4" stroke-width="1"/><line x1="398.2" y1="361.3" x2="402.4" y2="361.3" stroke="#d4d4d4" stroke-width="1"/></g>
    <g shape-rendering="crispEdges"><line x1="402.4" y1="358.3" x2="406.6" y2="358.3" stroke="#d4d4d4" stroke-width="1"/><line x1="402.4" y1="361.3" x2="406.6" y2="361.3" stroke="#d4d4d4" stroke-width="1"/><line x1="406.6" y1="358.3" x2="410.8" y2="358.3" stroke="#d4d4d4" stroke-width="1"/><line x1="406.6" y1="361.3" x2="410.8" y2="361.3" stroke="#d4d4d4" stroke-width="1"/></g>
    <g shape-rendering="crispEdges"><line x1="410.8" y1="358.3" x2="415" y2="358.3" stroke="#d4d4d4" stroke-width="1"/><line x1="410.8" y1="361.3" x2="415" y2="361.3" stroke="#d4d4d4" stroke-width="1"/><line x1="415" y1="358.3" x2="419.2" y2="358.3" stroke="#d4d4d4" stroke-width="1"/><line x1="415" y1="361.3" x2="419.2" y2="361.3" stroke="#d4d4d4" stroke-width="1"/></g>
    <g shape-rendering="crispEdges"><line x1="419.2" y1="358.3" x2="423.4" y2="358.3" stroke="#d4d4d4" stroke-width="1"/><line x1="419.2" y1="361.3" x2="423.4" y2="361.3" stroke="#d4d4d4" stroke-width="1"/><line x1="423.4" y1="358.3" x2="427.6" y2="358.3" stroke="#d4d4d4" stroke-width="1"/><line x1="423.4" y1="361.3" x2="427.6" y2="361.3" stroke="#d4d4d4" stroke-width="1"/></g>
    <g shape-rendering="crispEdges"><line x1="427.6" y1="358.3" x2="431.8" y2="358.3" stroke="#d4d4d4" stroke-width="1"/><line x1="427.6" y1="361.3" x2="431.8" y2="361.3" stroke="#d4d4d4" stroke-width="1"/><line x1="431.8" y1="358.3" x2="436" y2="358.3" stroke="#d4d4d4" stroke-width="1"/><line x1="431.8" y1="361.3" x2="436" y2="361.3" stroke="#d4d4d4" stroke-width="1"/></g>
    <g shape-rendering="crispEdges"><line x1="436" y1="358.3" x2="440.2" y2="358.3" stroke="#d4d4d4" stroke-width="1"/><line x1="436" y1="361.3" x2="440.2" y2="361.3" stroke="#d4d4d4" stroke-width="1"/><line x1="440.2" y1="358.3" x2="444.4" y2="358.3" stroke="#d4d4d4" stroke-width="1"/><line x1="440.2" y1="361.3" x2="444.4" y2="361.3" stroke="#d4d4d4" stroke-width="1"/></g>
    <g shape-rendering="crispEdges"><line x1="444.4" y1="358.3" x2="448.6" y2="358.3" stroke="#d4d4d4" stroke-width="1"/><line x1="444.4" y1="361.3" x2="448.6" y2="361.3" stroke="#d4d4d4" stroke-width="1"/><line x1="448.6" y1="358.3" x2="452.8" y2="358.3" stroke="#d4d4d4" stroke-width="1"/><line x1="448.6" y1="361.3" x2="452.8" y2="361.3" stroke="#d4d4d4" stroke-width="1"/></g>
    <g shape-rendering="crispEdges"><line x1="452.8" y1="358.3" x2="457" y2="358.3" stroke="#d4d4d4" stroke-width="1"/><line x1="452.8" y1="361.3" x2="457" y2="361.3" stroke="#d4d4d4" stroke-width="1"/><line x1="457" y1="358.3" x2="461.2" y2="358.3" stroke="#d4d4d4" stroke-width="1"/><line x1="457" y1="361.3" x2="461.2" y2="361.3" stroke="#d4d4d4" stroke-width="1"/></g>
    <g shape-rendering="crispEdges"><line x1="461.2" y1="358.3" x2="465.4" y2="358.3" stroke="#d4d4d4" stroke-width="1"/><line x1="461.2" y1="361.3" x2="465.4" y2="361.3" stroke="#d4d4d4" stroke-width="1"/><line x1="465.4" y1="358.3" x2="469.6" y2="358.3" stroke="#d4d4d4" stroke-width="1"/><line x1="465.4" y1="361.3" x2="469.6" y2="361.3" stroke="#d4d4d4" stroke-width="1"/></g>
    <g shape-rendering="crispEdges"><line x1="469.6" y1="358.3" x2="473.8" y2="358.3" stroke="#d4d4d4" stroke-width="1"/><line x1="469.6" y1="361.3" x2="473.8" y2="361.3" stroke="#d4d4d4" stroke-width="1"/><line x1="473.8" y1="358.3" x2="478" y2="358.3" stroke="#d4d4d4" stroke-width="1"/><line x1="473.8" y1="361.3" x2="478" y2="361.3" stroke="#d4d4d4" stroke-width="1"/></g>
    <g shape-rendering="crispEdges"><line x1="478" y1="358.3" x2="482.2" y2="358.3" stroke="#d4d4d4" stroke-width="1"/><line x1="478" y1="361.3" x2="482.2" y2="361.3" stroke="#d4d4d4" stroke-width="1"/><line x1="482.2" y1="358.3" x2="486.4" y2="358.3" stroke="#d4d4d4" stroke-width="1"/><line x1="482.2" y1="361.3" x2="486.4" y2="361.3" stroke="#d4d4d4" stroke-width="1"/></g>
    <g shape-rendering="crispEdges"><line x1="486.4" y1="358.3" x2="490.6" y2="358.3" stroke="#d4d4d4" stroke-width="1"/><line x1="486.4" y1="361.3" x2="490.6" y2="361.3" stroke="#d4d4d4" stroke-width="1"/><line x1="490.6" y1="358.3" x2="494.8" y2="358.3" stroke="#d4d4d4" stroke-width="1"/><line x1="490.6" y1="361.3" x2="494.8" y2="361.3" stroke="#d4d4d4" stroke-width="1"/></g>
    <g shape-rendering="crispEdges"><line x1="494.8" y1="358.3" x2="499" y2="358.3" stroke="#d4d4d4" stroke-width="1"/><line x1="494.8" y1="361.3" x2="499" y2="361.3" stroke="#d4d4d4" stroke-width="1"/><line x1="499" y1="358.3" x2="503.2" y2="358.3" stroke="#d4d4d4" stroke-width="1"/><line x1="499" y1="361.3" x2="503.2" y2="361.3" stroke="#d4d4d4" stroke-width="1"/></g>
    <g shape-rendering="crispEdges"><line x1="503.2" y1="358.3" x2="507.4" y2="358.3" stroke="#d4d4d4" stroke-width="1"/><line x1="503.2" y1="361.3" x2="507.4" y2="361.3" stroke="#d4d4d4" stroke-width="1"/><line x1="507.4" y1="358.3" x2="511.6" y2="358.3" stroke="#d4d4d4" stroke-width="1"/><line x1="507.4" y1="361.3" x2="511.6" y2="361.3" stroke="#d4d4d4" stroke-width="1"/></g>
    <g shape-rendering="crispEdges"><line x1="511.6" y1="358.3" x2="515.8" y2="358.3" stroke="#d4d4d4" stroke-width="1"/><line x1="511.6" y1="361.3" x2="515.8" y2="361.3" stroke="#d4d4d4" stroke-width="1"/><line x1="515.8" y1="358.3" x2="520" y2="358.3" stroke="#d4d4d4" stroke-width="1"/><line x1="515.8" y1="361.3" x2="520" y2="361.3" stroke="#d4d4d4" stroke-width="1"/></g>
    <g shape-rendering="crispEdges"><line x1="520" y1="358.3" x2="524.2" y2="358.3" stroke="#d4d4d4" stroke-width="1"/><line x1="520" y1="361.3" x2="524.2" y2="361.3" stroke="#d4d4d4" stroke-width="1"/><line x1="524.2" y1="358.3" x2="528.4" y2="358.3" stroke="#d4d4d4" stroke-width="1"/><line x1="524.2" y1="361.3" x2="528.4" y2="361.3" stroke="#d4d4d4" stroke-width="1"/></g>
    <g shape-rendering="crispEdges"><line x1="528.4" y1="358.3" x2="532.6" y2="358.3" stroke="#d4d4d4" stroke-width="1"/><line x1="528.4" y1="361.3" x2="532.6" y2="361.3" stroke="#d4d4d4" stroke-width="1"/><line x1="532.6" y1="358.3" x2="536.8" y2="358.3" stroke="#d4d4d4" stroke-width="1"/><line x1="532.6" y1="361.3" x2="536.8" y2="361.3" stroke="#d4d4d4" stroke-width="1"/></g>
    <g shape-rendering="crispEdges"><line x1="536.8" y1="358.3" x2="541" y2="358.3" stroke="#d4d4d4" stroke-width="1"/><line x1="536.8" y1="361.3" x2="541" y2="361.3" stroke="#d4d4d4" stroke-width="1"/><line x1="541" y1="358.3" x2="545.2" y2="358.3" stroke="#d4d4d4" stroke-width="1"/><line x1="541" y1="361.3" x2="545.2" y2="361.3" stroke="#d4d4d4" stroke-width="1"/></g>
    <g shape-rendering="crispEdges"><line x1="545.2" y1="358.3" x2="549.4" y2="358.3" stroke="#d4d4d4" stroke-width="1"/><line x1="545.2" y1="361.3" x2="549.4" y2="361.3" stroke="#d4d4d4" stroke-width="1"/><line x1="549.4" y1="358.3" x2="553.6" y2="358.3" stroke="#d4d4d4" stroke-width="1"/><line x1="549.4" y1="361.3" x2="553.6" y2="361.3" stroke="#d4d4d4" stroke-width="1"/></g>
    <g shape-rendering="crispEdges"><line x1="553.6" y1="358.3" x2="557.8" y2="358.3" stroke="#d4d4d4" stroke-width="1"/><line x1="553.6" y1="361.3" x2="557.8" y2="361.3" stroke="#d4d4d4" stroke-width="1"/><line x1="557.8" y1="358.3" x2="562" y2="358.3" stroke="#d4d4d4" stroke-width="1"/><line x1="557.8" y1="361.3" x2="562" y2="361.3" stroke="#d4d4d4" stroke-width="1"/></g>
    <g shape-rendering="crispEdges"><line x1="562" y1="358.3" x2="566.2" y2="358.3" stroke="#d4d4d4" stroke-width="1"/><line x1="562" y1="361.3" x2="566.2" y2="361.3" stroke="#d4d4d4" stroke-width="1"/><line x1="566.2" y1="358.3" x2="570.4" y2="358.3" stroke="#d4d4d4" stroke-width="1"/><line x1="566.2" y1="361.3" x2="570.4" y2="361.3" stroke="#d4d4d4" stroke-width="1"/></g>
    <g shape-rendering="crispEdges"><line x1="570.4" y1="358.3" x2="574.6" y2="358.3" stroke="#d4d4d4" stroke-width="1"/><line x1="570.4" y1="361.3" x2="574.6" y2="361.3" stroke="#d4d4d4" stroke-width="1"/><line x1="574.6" y1="358.3" x2="578.8" y2="358.3" stroke="#d4d4d4" stroke-width="1"/><line x1="574.6" y1="361.3" x2="578.8" y2="361.3" stroke="#d4d4d4" stroke-width="1"/></g>
    <g shape-rendering="crispEdges"><line x1="578.8" y1="358.3" x2="583" y2="358.3" stroke="#d4d4d4" stroke-width="1"/><line x1="578.8" y1="361.3" x2="583" y2="361.3" stroke="#d4d4d4" stroke-width="1"/><line x1="583" y1="358.3" x2="587.2" y2="358.3" stroke="#d4d4d4" stroke-width="1"/><line x1="583" y1="361.3" x2="587.2" y2="361.3" stroke="#d4d4d4" stroke-width="1"/></g>
    <g shape-rendering="crispEdges"><line x1="587.2" y1="358.3" x2="591.4" y2="358.3" stroke="#d4d4d4" stroke-width="1"/><line x1="587.2" y1="361.3" x2="591.4" y2="361.3" stroke="#d4d4d4" stroke-width="1"/><line x1="591.4" y1="358.3" x2="595.6" y2="358.3" stroke="#d4d4d4" stroke-width="1"/><line x1="591.4" y1="361.3" x2="595.6" y2="361.3" stroke="#d4d4d4" stroke-width="1"/></g>
    <g shape-rendering="crispEdges"><line x1="595.6" y1="358.3" x2="599.8" y2="358.3" stroke="#d4d4d4" stroke-width="1"/><line x1="595.6" y1="361.3" x2="599.8" y2="361.3" stroke="#d4d4d4" stroke-width="1"/><line x1="599.8" y1="358.3" x2="604" y2="358.3" stroke="#d4d4d4" stroke-width="1"/><line x1="599.8" y1="361.3" x2="604" y2="361.3" stroke="#d4d4d4" stroke-width="1"/></g>
    <g shape-rendering="crispEdges"><line x1="604" y1="358.3" x2="608.2" y2="358.3" stroke="#d4d4d4" stroke-width="1"/><line x1="604" y1="361.3" x2="608.2" y2="361.3" stroke="#d4d4d4" stroke-width="1"/><line x1="608.2" y1="358.3" x2="612.4" y2="358.3" stroke="#d4d4d4" stroke-width="1"/><line x1="608.2" y1="361.3" x2="612.4" y2="361.3" stroke="#d4d4d4" stroke-width="1"/></g>
    <g shape-rendering="crispEdges"><line x1="612.4" y1="358.3" x2="616.6" y2="358.3" stroke="#d4d4d4" stroke-width="1"/><line x1="612.4" y1="361.3" x2="616.6" y2="361.3" stroke="#d4d4d4" stroke-width="1"/><line x1="616.6" y1="358.3" x2="620.8" y2="358.3" stroke="#d4d4d4" stroke-width="1"/><line x1="616.6" y1="361.3" x2="620.8" y2="361.3" stroke="#d4d4d4" stroke-width="1"/></g>
    <g shape-rendering="crispEdges"><line x1="620.8" y1="358.3" x2="625" y2="358.3" stroke="#d4d4d4" stroke-width="1"/><line x1="620.8" y1="361.3" x2="625" y2="361.3" stroke="#d4d4d4" stroke-width="1"/><line x1="625" y1="358.3" x2="629.2" y2="358.3" stroke="#d4d4d4" stroke-width="1"/><line x1="625" y1="361.3" x2="629.2" y2="361.3" stroke="#d4d4d4" stroke-width="1"/></g>
    <g shape-rendering="crispEdges"><line x1="629.2" y1="358.3" x2="633.4" y2="358.3" stroke="#d4d4d4" stroke-width="1"/><line x1="629.2" y1="361.3" x2="633.4" y2="361.3" stroke="#d4d4d4" stroke-width="1"/><line x1="633.4" y1="358.3" x2="637.6" y2="358.3" stroke="#d4d4d4" stroke-width="1"/><line x1="633.4" y1="361.3" x2="637.6" y2="361.3" stroke="#d4d4d4" stroke-width="1"/></g>
  </g>
  <g class="text">
    <text y="109.2" font-family="'SF Mono', 'Monaco', 'Menlo', 'Ubuntu Mono', 'Consolas', 'Courier New', monospace" font-size="14" xml:space="preserve"><tspan x="16" fill="#afffff">A</tspan><tspan x="24.4" fill="#aff2ff">l</tspan><tspan x="32.8" fill="#afe4ff">i</tspan><tspan x="41.2" fill="#afd7ff">g</tspan><tspan x="49.6" fill="#afcaff">n</tspan><tspan x="58" fill="#afbcff">e</tspan><tspan x="66.4" fill="#afafff">d</tspan></text>
    <text y="168" font-family="'SF Mono', 'Monaco', 'Menlo', 'Ubuntu Mono', 'Consolas', 'Courier New', monospace" font-size="14" xml:space="preserve"><tspan x="32.8" fill="#d4d4d4">       </tspan><tspan x="100" fill="#d4d4d4">       </tspan><tspan x="167.2" fill="#d4d4d4">       </tspan><tspan x="234.4" fill="#d4d4d4">       </tspan><tspan x="301.6" fill="#d4d4d4">       </tspan><tspan x="368.8" fill="#d4d4d4">       </tspan><tspan x="436" fill="#d4d4d4">       </tspan><tspan x="503.2" fill="#d4d4d4">       </tspan><tspan x="570.4" fill="#d4d4d4">       </tspan></text>
    <text y="187.6" font-family="'SF Mono', 'Monaco', 'Menlo', 'Ubuntu Mono', 'Consolas', 'Courier New', monospace" font-size="14" xml:space="preserve"><tspan x="32.8" fill="#d4d4d4">       </tspan><tspan x="100" fill="#d4d4d4">       </tspan><tspan x="167.2" fill="#d4d4d4">       </tspan><tspan x="234.4" fill="#d4d4d4">       </tspan><tspan x="301.6" fill="#d4d4d4">       </tspan><tspan x="368.8" fill="#d4d4d4">       </tspan><tspan x="436" fill="#d4d4d4">       </tspan><tspan x="503.2" fill="#d4d4d4">       </tspan><tspan x="570.4" fill="#d4d4d4">       </tspan></text>
    <text y="207.2" font-family="'SF Mono', 'Monaco', 'Menlo', 'Ubuntu Mono', 'Consolas', 'Courier New', monospace" font-size="14" xml:space="preserve"><tspan x="32.8" fill="#d4d4d4">       </tspan><tspan x="100" fill="#d4d4d4">       </tspan><tspan x="167.2" fill="#d4d4d4">       </tspan><tspan x="234.4" fill="#d4d4d4">       </tspan><tspan x="301.6" fill="#d4d4d4">       </tspan><tspan x="368.8" fill="#d4d4d4">       </tspan><tspan x="436" fill="#d4d4d4">       </tspan><tspan x="503.2" fill="#d4d4d4">       </tspan><tspan x="570.4" fill="#d4d4d4">       </tspan></text>
    <text y="226.8" font-family="'SF Mono', 'Monaco', 'Menlo', 'Ubuntu Mono', 'Consolas', 'Courier New', monospace" font-size="14" xml:space="preserve"><tspan x="32.8" fill="#d4d4d4">       </tspan><tspan x="100" fill="#d4d4d4">       </tspan><tspan x="167.2" fill="#d4d4d4">       </tspan><tspan x="234.4" fill="#d4d4d4">       </tspan><tspan x="301.6" fill="#d4d4d4">       </tspan><tspan x="368.8" fill="#d4d4d4">       </tspan><tspan x="436" fill="#d4d4d4">       </tspan><tspan x="503.2" fill="#d4d4d4">       </tspan><tspan x="570.4" fill="#d4d4d4">       </tspan></text>
    <text y="246.4" font-family="'SF Mono', 'Monaco', 'Menlo', 'Ubuntu Mono', 'Consolas', 'Courier New', monospace" font-size="14" xml:space="preserve"><tspan x="32.8" fill="#d4d4d4">       </tspan><tspan x="100" fill="#d4d4d4">       </tspan><tspan x="167.2" fill="#d4d4d4">       </tspan><tspan x="234.4" fill="#d4d4d4">       </tspan><tspan x="301.6" fill="#d4d4d4">       </tspan><tspan x="368.8" fill="#d4d4d4">       </tspan><tspan x="436" fill="#d4d4d4">       </tspan><tspan x="503.2" fill="#d4d4d4">       </tspan><tspan x="570.4" fill="#d4d4d4">       </tspan></text>
    <text y="266" font-family="'SF Mono', 'Monaco', 'Menlo', 'Ubuntu Mono', 'Consolas', 'Courier New', monospace" font-size="14" xml:space="preserve"><tspan x="32.8" fill="#d4d4d4">       </tspan><tspan x="100" fill="#d4d4d4">       </tspan><tspan x="167.2" fill="#d4d4d4">       </tspan><tspan x="234.4" fill="#d4d4d4">       </tspan><tspan x="301.6" fill="#d4d4d4">       </tspan><tspan x="368.8" fill="#d4d4d4">       </tspan><tspan x="436" fill="#d4d4d4">       </tspan><tspan x="503.2" fill="#d4d4d4">       </tspan><tspan x="570.4" fill="#d4d4d4">       </tspan></text>
    <text y="285.6" font-family="'SF Mono', 'Monaco', 'Menlo', 'Ubuntu Mono', 'Consolas', 'Courier New', monospace" font-size="14" xml:space="preserve"><tspan x="32.8" fill="#d4d4d4">       </tspan><tspan x="100" fill="#d4d4d4">       </tspan><tspan x="167.2" fill="#d4d4d4">       </tspan><tspan x="234.4" fill="#d4d4d4">       </tspan><tspan x="301.6" fill="#d4d4d4">       </tspan><tspan x="368.8" fill="#d4d4d4">       </tspan><tspan x="436" fill="#d4d4d4">       </tspan><tspan x="503.2" fill="#d4d4d4">       </tspan><tspan x="570.4" fill="#d4d4d4">       </tspan></text>
    <text y="305.2" font-family="'SF Mono', 'Monaco', 'Menlo', 'Ubuntu Mono', 'Consolas', 'Courier New', monospace" font-size="14" xml:space="preserve"><tspan x="32.8" fill="#d4d4d4">       </tspan><tspan x="100" fill="#d4d4d4">       </tspan><tspan x="167.2" fill="#d4d4d4">       </tspan><tspan x="234.4" fill="#d4d4d4">       </tspan><tspan x="301.6" fill="#d4d4d4">       </tspan><tspan x="368.8" fill="#d4d4d4">       </tspan><tspan x="436" fill="#d4d4d4">       </tspan><tspan x="503.2" fill="#d4d4d4">       </tspan><tspan x="570.4" fill="#d4d4d4">       </tspan></text>
    <text y="324.8" font-family="'SF Mono', 'Monaco', 'Menlo', 'Ubuntu Mono', 'Consolas', 'Courier New', monospace" font-size="14" xml:space="preserve"><tspan x="32.8" fill="#d4d4d4">       </tspan><tspan x="100" fill="#d4d4d4">       </tspan><tspan x="167.2" fill="#d4d4d4">       </tspan><tspan x="234.4" fill="#d4d4d4">       </tspan><tspan x="301.6" fill="#d4d4d4">       </tspan><tspan x="368.8" fill="#d4d4d4">       </tspan><tspan x="436" fill="#d4d4d4">       </tspan><tspan x="503.2" fill="#d4d4d4">       </tspan><tspan x="570.4" fill="#d4d4d4">       </tspan></text>
    <text y="344.4" font-family="'SF Mono', 'Monaco', 'Menlo', 'Ubuntu Mono', 'Consolas', 'Courier New', monospace" font-size="14" xml:space="preserve"><tspan x="32.8" fill="#d4d4d4">       </tspan><tspan x="100" fill="#d4d4d4">       </tspan><tspan x="167.2" fill="#d4d4d4">       </tspan><tspan x="234.4" fill="#d4d4d4">       </tspan><tspan x="301.6" fill="#d4d4d4">       </tspan><tspan x="368.8" fill="#d4d4d4">       </tspan><tspan x="436" fill="#d4d4d4">       </tspan><tspan x="503.2" fill="#d4d4d4">       </tspan><tspan x="570.4" fill="#d4d4d4">       </tspan></text>
    <text y="383.6" font-family="'SF Mono', 'Monaco', 'Menlo', 'Ubuntu Mono', 'Consolas', 'Courier New', monospace" font-size="14" xml:space="preserve"><tspan x="16" fill="#d4d4d4"> </tspan><tspan x="24.4" fill="#afffff">1</tspan><tspan x="32.8" fill="#d4d4d4">       </tspan><tspan x="91.6" fill="#aff6ff">2</tspan><tspan x="100" fill="#d4d4d4">       </tspan><tspan x="158.8" fill="#afedff">3</tspan><tspan x="167.2" fill="#d4d4d4">       </tspan><tspan x="226" fill="#afe4ff">4</tspan><tspan x="234.4" fill="#d4d4d4">       </tspan><tspan x="293.2" fill="#afdbff">5</tspan><tspan x="301.6" fill="#d4d4d4">       </tspan><tspan x="360.4" fill="#afd3ff">6</tspan><tspan x="368.8" fill="#d4d4d4">       </tspan><tspan x="427.6" fill="#afcaff">7</tspan><tspan x="436" fill="#d4d4d4">       </tspan><tspan x="494.8" fill="#afc1ff">8</tspan><tspan x="503.2" fill="#d4d4d4">       </tspan><tspan x="562" fill="#afb8ff">9</tspan><tspan x="570.4" fill="#d4d4d4">       </tspan><tspan x="629.2" fill="#afafff">10</tspan><tspan x="646" fill="#d4d4d4"> </tspan></text>
  </g>
  <text y="431.2" font-family="'SF Mono', 'Monaco', 'Menlo', 'Ubuntu Mono', 'Consolas', 'Courier New', monospace" font-size="10" xml:space="preserve"><tspan x="528.4" fill="#6a6a6a">Generated by shellfie</tspan></text>
</svg>